<svg data-v-fde0c5aa="" xmlns="http://www.w3.org/2000/svg" viewBox="0 0 300 300" class="iconLeftSlogan"><!----><defs data-v-fde0c5aa=""><!----></defs><rect data-v-fde0c5aa="" fill="transparent" x="0" y="0" width="300px" height="300px" class="logo-background-square"></rect><defs data-v-fde0c5aa=""><!----></defs><g data-v-fde0c5aa="" id="bfc1ccbe-f71c-4753-bb0c-84d2305c36d9" fill="#000000" transform="matrix(2.0105826646779503,0,0,2.0105826646779503,100.62112443301437,123.06084114596032)"><path d="M6.27 3.99C5.75 3.93 5.36 3.92 4.76 3.92L1.12 3.92L1.12 13.58L3.64 13.58L3.64 10.19L4.76 10.19C5.36 10.19 5.75 10.18 6.27 10.12C7.67 9.95 8.95 8.96 8.95 7.06C8.95 5.15 7.67 4.16 6.27 3.99ZM5.29 8.22C5.11 8.23 4.89 8.23 4.62 8.23L3.64 8.23L3.64 5.88L4.62 5.88C4.89 5.88 5.11 5.88 5.29 5.89C5.94 5.95 6.31 6.33 6.31 7.06C6.31 7.78 5.94 8.16 5.29 8.22ZM14.29 5.91C13.82 5.91 13.23 6.12 12.82 6.57L12.29 7.62L12.29 6.10L9.77 6.10L9.77 13.58L12.29 13.58L12.29 10.84C12.29 8.58 12.98 7.88 14.87 8.01L14.87 5.95C14.69 5.92 14.53 5.91 14.29 5.91ZM22.97 9.74C22.97 7.81 21.71 5.91 19.22 5.91C16.73 5.91 15.23 7.69 15.23 9.87C15.23 12.50 16.94 13.78 19.08 13.78C21 13.78 22.40 12.82 22.83 11.13L20.36 11.13C20.26 11.70 19.82 12.07 19.11 12.07C18.40 12.07 17.85 11.72 17.72 10.47L22.93 10.47C22.96 10.22 22.97 9.97 22.97 9.74ZM19.10 7.62C19.77 7.62 20.20 8.05 20.34 8.93L17.81 8.93C17.98 8.01 18.44 7.62 19.10 7.62ZM27.09 7.73L28.74 7.73L28.74 6.16L27.09 6.16L27.09 4.23L24.57 4.23L24.57 6.16L23.38 6.16L23.38 7.73L24.57 7.73L24.57 10.85C24.57 11.27 24.57 11.62 24.60 12.05C24.68 13.20 25.24 13.78 27.10 13.78C27.64 13.78 28.10 13.73 28.59 13.65L28.59 12.08C27.40 12.14 27.16 11.97 27.10 11.21C27.09 11.02 27.09 10.74 27.09 10.49ZM33.18 5.91C30.73 5.91 29.16 7.43 29.16 9.84C29.16 12.24 30.73 13.78 33.18 13.78C35.63 13.78 37.20 12.24 37.20 9.84C37.20 7.43 35.63 5.91 33.18 5.91ZM33.18 12.07C32.28 12.07 31.74 11.33 31.74 9.84C31.74 8.34 32.28 7.62 33.18 7.62C34.08 7.62 34.62 8.34 34.62 9.84C34.62 11.33 34.08 12.07 33.18 12.07ZM42.81 5.91C42.34 5.91 41.75 6.12 41.34 6.57L40.81 7.62L40.81 6.10L38.29 6.10L38.29 13.58L40.81 13.58L40.81 10.84C40.81 8.58 41.50 7.88 43.39 8.01L43.39 5.95C43.20 5.92 43.05 5.91 42.81 5.91ZM45.43 3.07C44.65 3.07 44.13 3.54 44.13 4.30C44.13 5.05 44.65 5.53 45.43 5.53C46.21 5.53 46.73 5.05 46.73 4.30C46.73 3.54 46.21 3.07 45.43 3.07ZM46.69 13.58L46.69 6.10L44.17 6.10L44.17 13.58ZM55.65 6.10L53.13 6.10L53.13 10.33C53.13 11.33 52.65 12.07 51.86 12.07C51.06 12.07 50.72 11.65 50.64 10.93C50.60 10.56 50.58 10.15 50.58 9.91L50.58 6.10L48.06 6.10L48.06 10.47C48.06 11.07 48.08 11.51 48.13 11.89C48.30 12.91 49.24 13.78 50.78 13.78C51.46 13.78 52.00 13.62 52.46 13.34L53.13 12.32L53.13 13.58L55.65 13.58ZM60.24 5.91C58.25 5.91 56.97 6.83 56.97 8.32C56.97 9.59 57.82 10.25 59.25 10.58C60.58 10.89 61.05 11.16 61.05 11.63C61.05 12.03 60.70 12.21 60.26 12.21C59.72 12.21 59.28 11.83 59.14 11.26L56.66 11.26C56.85 12.94 58.24 13.78 60.27 13.78C62.08 13.78 63.57 13.03 63.57 11.44C63.57 10.00 62.61 9.41 61.25 9.07C59.82 8.72 59.49 8.44 59.49 8.02C59.49 7.70 59.74 7.48 60.09 7.48C60.54 7.48 60.79 7.77 60.90 8.29L63.38 8.29C63.18 6.93 62.10 5.91 60.24 5.91ZM67.63 5.91C65.65 5.91 64.36 6.83 64.36 8.32C64.36 9.59 65.21 10.25 66.64 10.58C67.97 10.89 68.45 11.16 68.45 11.63C68.45 12.03 68.10 12.21 67.65 12.21C67.12 12.21 66.67 11.83 66.53 11.26L64.05 11.26C64.25 12.94 65.63 13.78 67.66 13.78C69.47 13.78 70.97 13.03 70.97 11.44C70.97 10.00 70.00 9.41 68.64 9.07C67.21 8.72 66.88 8.44 66.88 8.02C66.88 7.70 67.13 7.48 67.48 7.48C67.93 7.48 68.18 7.77 68.29 8.29L70.77 8.29C70.57 6.93 69.50 5.91 67.63 5.91ZM79.27 9.74C79.27 7.81 78.01 5.91 75.52 5.91C73.02 5.91 71.53 7.69 71.53 9.87C71.53 12.50 73.23 13.78 75.38 13.78C77.29 13.78 78.69 12.82 79.13 11.13L76.65 11.13C76.55 11.70 76.12 12.07 75.40 12.07C74.69 12.07 74.14 11.72 74.02 10.47L79.23 10.47C79.25 10.22 79.27 9.97 79.27 9.74ZM75.39 7.62C76.06 7.62 76.50 8.05 76.64 8.93L74.10 8.93C74.27 8.01 74.73 7.62 75.39 7.62Z"></path></g><defs data-v-fde0c5aa=""><linearGradient data-v-fde0c5aa="" gradientTransform="rotate(25)" id="f3588b57-83c9-4104-bfe4-bb311f71c791" x1="0%" y1="0%" x2="100%" y2="0%"><stop data-v-fde0c5aa="" offset="0%" stop-color="#01648B" stop-opacity="1"></stop><stop data-v-fde0c5aa="" offset="100%" stop-color="#5BD0A4" stop-opacity="1"></stop></linearGradient></defs><g data-v-fde0c5aa="" id="1d4b8f91-1bf6-44c0-8de4-1d3664cbf21d" stroke="none" fill="url(#f3588b57-83c9-4104-bfe4-bb311f71c791)" transform="matrix(0.6269938010773883,0,0,0.6269938010773883,33.75702286139635,118.13711639056086)"><path d="M13.572 36.355a3.616 3.616 0 0 0-3.615 3.616v21.694a3.614 3.614 0 0 0 3.615 3.615 3.615 3.615 0 0 0 3.616-3.615V39.971a3.617 3.617 0 0 0-3.616-3.616zm12.053-15.667a3.615 3.615 0 0 0-3.615 3.616v53.029a3.614 3.614 0 0 0 3.615 3.615 3.615 3.615 0 0 0 3.616-3.615V24.304a3.617 3.617 0 0 0-3.616-3.616zM37.677 8.636a3.616 3.616 0 0 0-3.616 3.616v77.133a3.615 3.615 0 0 0 7.232 0V12.252a3.617 3.617 0 0 0-3.616-3.616zm12.052 21.092a3.616 3.616 0 0 0-3.616 3.615v34.951a3.615 3.615 0 0 0 7.231 0V33.343a3.616 3.616 0 0 0-3.615-3.615zM61.78 8.636a3.616 3.616 0 0 0-3.615 3.616v77.133a3.615 3.615 0 0 0 7.23 0V12.252a3.615 3.615 0 0 0-3.615-3.616zm12.053 18.078a3.616 3.616 0 0 0-3.615 3.616v40.976a3.616 3.616 0 1 0 7.23 0V30.33a3.617 3.617 0 0 0-3.615-3.616zm12.052 10.244a3.617 3.617 0 0 0-3.616 3.616v20.489a3.616 3.616 0 0 0 7.231-.001V40.574a3.617 3.617 0 0 0-3.615-3.616z"></path></g><defs data-v-fde0c5aa=""><!----></defs><g data-v-fde0c5aa="" id="38c4ea50-e926-45b2-bf4b-b6a74452f4be" fill="#000000" transform="matrix(1.1268432316543102,0,0,1.1268432316543102,102.5912662191273,157.4988247284376)"><path d="M0.25 5.01C0.25 5.17 0.43 5.17 0.56 5.17C0.71 5.17 0.76 5.15 0.77 4.97L0.88 3.89C0.90 3.81 1.44 3.75 2.20 3.75L4.19 3.75C4.24 3.75 4.27 4.35 4.27 4.97C4.27 6.43 4.21 12.18 4.09 12.18L3.22 12.18C3.00 12.18 2.95 12.19 2.95 12.39C2.95 12.63 2.97 12.68 3.16 12.68C3.49 12.68 4.47 12.64 4.89 12.64C5.31 12.64 6.24 12.68 6.57 12.68C6.73 12.68 6.76 12.61 6.76 12.40C6.76 12.24 6.73 12.18 6.57 12.18L5.57 12.18C5.54 12.18 5.54 11.76 5.54 11.31C5.54 9.56 5.63 5.96 5.63 5.92C5.64 5.18 5.64 3.75 5.74 3.75L7.35 3.75C8.06 3.75 8.89 3.78 8.89 3.85C8.89 3.99 8.85 4.90 8.85 4.97C8.85 5.12 8.92 5.17 9.10 5.17C9.30 5.17 9.37 5.17 9.37 5.03C9.37 3.93 9.42 3.40 9.42 3.14C9.42 2.94 9.34 2.94 9.14 2.94C8.99 2.94 8.93 2.98 8.92 3.16C8.92 3.23 8.27 3.28 7.43 3.28L2.44 3.28C1.78 3.28 0.97 3.28 0.97 3.21L0.97 3.07C0.97 2.94 0.84 2.94 0.74 2.94C0.52 2.94 0.49 3.00 0.48 3.19C0.42 3.89 0.25 4.97 0.25 5.01ZM17.18 12.39C17.18 12.63 17.21 12.68 17.40 12.68C17.72 12.68 18.69 12.64 19.11 12.64C19.53 12.64 24.04 12.68 24.36 12.68C24.49 12.68 24.64 12.66 24.64 12.49C24.64 12.07 24.68 11.23 24.68 10.53C24.68 10.39 24.53 10.39 24.40 10.39C24.29 10.39 24.16 10.39 24.16 10.51C24.15 11.06 24.15 11.41 24.12 11.76C24.09 12.01 24.09 12.04 24.00 12.04C23.84 12.04 21.21 12.08 19.71 12.08C19.64 12.08 19.60 10.11 19.56 8.26C19.56 8.06 19.60 8.09 19.74 8.09L22.02 8.09C22.72 8.09 22.75 8.20 22.75 8.30L22.75 9.00C22.75 9.14 22.93 9.14 23.04 9.14C23.14 9.14 23.27 9.13 23.27 9.02C23.27 8.83 23.24 8.33 23.24 7.83C23.24 7.32 23.27 6.83 23.27 6.71C23.27 6.59 23.13 6.58 23.03 6.58C22.92 6.58 22.75 6.59 22.75 6.72L22.75 7.45C22.75 7.62 22.30 7.63 22.02 7.63L19.68 7.63C19.57 7.63 19.56 7.63 19.56 7.45C19.54 6.75 19.53 6.06 19.53 5.46C19.53 5.12 19.53 3.71 19.61 3.71C20.85 3.71 23.35 3.75 23.35 3.81C23.35 3.99 23.31 4.83 23.31 4.89C23.31 5.04 23.38 5.10 23.56 5.10C23.76 5.10 23.83 5.08 23.83 4.94C23.83 3.85 23.88 3.36 23.88 3.09C23.88 2.91 23.80 2.90 23.60 2.90C23.41 2.90 23.41 2.95 23.38 3.11C23.37 3.25 23.44 3.25 22.53 3.25C21.91 3.25 19.77 3.29 19.00 3.29C18.51 3.29 17.57 3.25 17.47 3.25C17.35 3.25 17.29 3.30 17.29 3.49C17.29 3.72 17.36 3.74 17.53 3.74L18.19 3.74C18.24 3.74 18.31 4.79 18.31 5.71C18.31 5.80 18.37 8.27 18.37 9.83L18.37 11.17C18.37 11.84 18.34 12.18 18.31 12.18L17.46 12.18C17.23 12.18 17.18 12.21 17.18 12.39ZM32.72 7.91C32.72 11.31 35.08 12.87 37.67 12.87C39.45 12.87 41.23 11.90 41.27 11.59C41.44 10.29 41.50 9.70 41.50 9.66C41.50 9.56 41.45 9.52 41.29 9.51C41.23 9.51 41.17 9.49 41.13 9.49C41.02 9.49 40.96 9.53 40.94 9.70L40.75 11.33C40.74 11.45 39.63 12.24 38.07 12.24C35.94 12.24 34.23 10.29 34.23 7.94C34.23 5.42 35.66 3.54 37.66 3.54C39.51 3.54 40.85 5.01 40.85 5.17C40.85 5.29 40.80 6.40 40.80 6.45C40.80 6.59 40.84 6.64 41.10 6.64C41.30 6.64 41.37 6.62 41.37 6.44C41.37 5.73 41.43 3.92 41.43 3.67C41.43 3.47 41.31 3.44 41.10 3.44C40.88 3.44 40.85 3.50 40.85 3.67L40.85 4.05C40.85 4.16 40.81 4.16 40.68 4.06C40.40 3.86 39.42 3.04 37.76 3.04C34.92 3.04 32.72 4.96 32.72 7.91ZM49.88 12.39C49.88 12.63 49.88 12.68 50.08 12.68C50.40 12.68 51.34 12.64 51.76 12.64C52.18 12.64 53.00 12.68 53.33 12.68C53.49 12.68 53.49 12.61 53.49 12.40C53.49 12.24 53.49 12.18 53.33 12.18L52.40 12.18C52.32 12.18 52.28 9.93 52.28 8.20C52.28 8.01 52.28 8.01 52.40 8.01L57.64 8.01C57.71 8.01 57.72 8.01 57.72 8.18L57.72 9.91C57.72 11.05 57.71 12.18 57.65 12.18L56.88 12.18C56.66 12.18 56.62 12.19 56.62 12.39C56.62 12.63 56.63 12.68 56.83 12.68C57.15 12.68 57.99 12.64 58.41 12.64C58.83 12.64 59.42 12.68 59.74 12.68C59.91 12.68 59.92 12.61 59.92 12.40C59.92 12.24 59.91 12.18 59.74 12.18L59.00 12.18C58.95 12.18 58.94 9.27 58.94 7.04C58.94 5.40 58.94 3.70 58.98 3.70L59.60 3.70C59.82 3.70 59.86 3.68 59.86 3.49C59.86 3.25 59.85 3.19 59.65 3.19C59.51 3.19 58.88 3.23 58.30 3.23C57.62 3.23 57.02 3.19 56.80 3.19C56.60 3.19 56.57 3.22 56.57 3.44C56.57 3.67 56.64 3.70 56.81 3.70L57.61 3.70C57.67 3.70 57.72 4.79 57.72 5.71L57.72 7.42C57.72 7.59 57.72 7.59 57.55 7.59L52.44 7.59C52.28 7.59 52.28 7.59 52.28 7.38C52.28 6.96 52.26 6.23 52.26 5.53C52.26 4.66 52.28 3.70 52.33 3.70L53.10 3.70C53.33 3.70 53.37 3.68 53.37 3.49C53.37 3.25 53.35 3.19 53.16 3.19C52.84 3.19 52.25 3.23 51.65 3.23C51.06 3.23 50.57 3.19 50.34 3.19C50.16 3.19 50.06 3.21 50.06 3.44C50.06 3.68 50.18 3.70 50.34 3.70L50.96 3.70C51.02 3.70 51.03 5.59 51.03 7.18L51.03 8.61C51.03 10.08 51.02 12.18 50.95 12.18L50.13 12.18C49.91 12.18 49.88 12.19 49.88 12.39ZM67.96 12.39C67.96 12.63 67.97 12.68 68.17 12.68C68.35 12.68 68.73 12.64 69.34 12.64C69.97 12.64 70.53 12.68 70.85 12.68C71.02 12.68 71.02 12.61 71.02 12.40C71.02 12.24 71.02 12.18 70.85 12.18L69.65 12.18C69.61 12.18 69.59 11.54 69.59 10.79C69.59 9.46 69.61 7.48 69.61 5.99C69.61 5.25 69.61 4.84 69.62 4.28C69.62 4.02 69.69 4.14 69.82 4.28L76.71 12.66C76.79 12.75 76.87 12.89 76.99 12.89C77.10 12.89 77.17 12.77 77.17 12.54C77.17 12.39 77.34 6.65 77.35 4.48C77.35 4.06 77.38 3.70 77.41 3.70L78.04 3.70C78.26 3.70 78.32 3.68 78.32 3.49C78.32 3.25 78.32 3.19 78.12 3.19C77.92 3.19 77.49 3.23 76.93 3.23C76.31 3.23 75.52 3.19 75.42 3.19C75.25 3.19 75.25 3.26 75.25 3.47C75.25 3.64 75.25 3.70 75.42 3.70L76.72 3.70C76.73 3.70 76.73 4.33 76.73 4.44C76.73 5.85 76.76 8.33 76.76 9.70L76.76 10.29C76.76 10.57 76.75 10.65 76.52 10.37L70.84 3.39C70.73 3.25 70.70 3.19 70.53 3.19C70.45 3.19 70.07 3.23 69.76 3.23C69.47 3.23 68.39 3.19 68.19 3.19C68.03 3.19 68.00 3.26 68.00 3.47C68.00 3.64 68.03 3.70 68.19 3.70L69.10 3.70C69.10 4.17 69.06 8.53 68.99 10.79C68.96 11.69 68.98 12.18 68.87 12.18L68.22 12.18C68.00 12.18 67.96 12.19 67.96 12.39ZM86.21 12.39C86.21 12.63 86.25 12.68 86.45 12.68C86.77 12.68 87.53 12.64 88.24 12.64C88.90 12.64 89.70 12.68 89.92 12.68C90.09 12.68 90.12 12.61 90.12 12.40C90.12 12.24 90.09 12.18 89.92 12.18L88.96 12.18C88.86 12.18 88.83 9.55 88.83 7.76L88.83 5.87C88.83 5.14 88.86 3.70 88.96 3.70L89.87 3.70C90.09 3.70 90.12 3.68 90.12 3.49C90.12 3.25 90.09 3.19 89.92 3.19C89.60 3.19 88.93 3.23 88.27 3.23C87.46 3.23 86.74 3.19 86.52 3.19C86.34 3.19 86.27 3.21 86.27 3.44C86.27 3.68 86.35 3.70 86.52 3.70L87.44 3.70C87.49 3.70 87.56 4.79 87.56 5.71L87.56 7.08C87.56 8.92 87.54 12.18 87.43 12.18L86.51 12.18C86.28 12.18 86.21 12.19 86.21 12.39ZM98.08 7.91C98.08 11.31 100.45 12.87 103.04 12.87C104.82 12.87 106.60 11.90 106.64 11.59C106.81 10.29 106.86 9.70 106.86 9.66C106.86 9.56 106.82 9.52 106.65 9.51C106.60 9.51 106.54 9.49 106.50 9.49C106.39 9.49 106.33 9.53 106.30 9.70L106.12 11.33C106.11 11.45 105.00 12.24 103.43 12.24C101.30 12.24 99.60 10.29 99.60 7.94C99.60 5.42 101.02 3.54 103.03 3.54C104.87 3.54 106.22 5.01 106.22 5.17C106.22 5.29 106.16 6.40 106.16 6.45C106.16 6.59 106.20 6.64 106.47 6.64C106.67 6.64 106.74 6.62 106.74 6.44C106.74 5.73 106.79 3.92 106.79 3.67C106.79 3.47 106.68 3.44 106.47 3.44C106.25 3.44 106.22 3.50 106.22 3.67L106.22 4.05C106.22 4.16 106.18 4.16 106.05 4.06C105.77 3.86 104.79 3.04 103.12 3.04C100.28 3.04 98.08 4.96 98.08 7.91ZM115.11 12.39C115.11 12.63 115.11 12.68 115.30 12.68C115.47 12.68 115.79 12.64 116.37 12.64C116.98 12.64 117.53 12.68 117.68 12.68C117.85 12.68 117.85 12.61 117.85 12.40C117.85 12.24 117.85 12.18 117.68 12.18L116.61 12.18C116.61 12.18 116.59 12.18 116.59 12.17C116.61 11.87 117.38 9.90 117.73 9.02C117.80 8.83 117.81 8.79 118.02 8.79L120.85 8.79C120.99 8.79 120.99 8.81 121.06 9.03C121.32 9.77 122.04 11.89 122.04 12.17C122.04 12.18 122.02 12.18 122.02 12.18L121.25 12.18C121.03 12.18 121.02 12.19 121.02 12.39C121.02 12.63 121.03 12.68 121.20 12.68C121.52 12.68 122.39 12.64 122.81 12.64C123.23 12.64 123.90 12.68 124.11 12.68C124.25 12.68 124.26 12.61 124.26 12.40C124.26 12.24 124.25 12.18 124.11 12.18L123.62 12.18C123.52 12.18 122.50 9.34 121.94 7.78L120.26 3.07C120.25 3.00 120.18 2.94 120.09 2.94C119.97 2.94 119.87 3.16 119.78 3.35C119.63 3.71 119.39 3.84 119.28 4.13L117.80 7.57C117.61 8.01 115.91 12.18 115.78 12.18L115.36 12.18C115.14 12.18 115.11 12.19 115.11 12.39ZM118.01 8.33C118.01 8.30 118.03 8.23 118.08 8.13L119.45 4.77C119.49 4.66 119.52 4.61 119.55 4.61C119.56 4.61 119.57 4.63 119.62 4.77L120.78 8.18C120.81 8.25 120.82 8.29 120.82 8.32C120.82 8.36 120.79 8.37 120.69 8.37L118.19 8.37C118.01 8.37 118.01 8.34 118.01 8.33ZM132.02 12.39C132.02 12.63 132.05 12.68 132.24 12.68C132.57 12.68 133.53 12.64 133.95 12.64C134.37 12.64 138.73 12.68 139.05 12.68C139.31 12.68 139.38 12.66 139.40 12.49C139.45 12.08 139.69 10.72 139.69 10.60C139.69 10.47 139.54 10.44 139.37 10.43C139.27 10.42 139.19 10.46 139.17 10.56L139.01 11.76C138.96 12.05 138.95 12.03 138.73 12.04C138.57 12.05 136.07 12.12 134.64 12.12C134.60 12.12 134.55 11.38 134.55 10.54L134.55 6.66C134.55 5.40 134.57 3.70 134.67 3.70L135.65 3.70C135.88 3.70 135.91 3.63 135.91 3.44C135.91 3.23 135.90 3.19 135.66 3.19C135.34 3.19 134.40 3.23 133.98 3.23C133.56 3.23 132.62 3.19 132.40 3.19C132.17 3.19 132.12 3.22 132.12 3.44C132.12 3.65 132.16 3.70 132.36 3.70L133.18 3.70C133.22 3.70 133.25 4.23 133.25 4.90L133.25 8.13C133.25 10.07 133.22 12.18 133.14 12.18L132.30 12.18C132.08 12.18 132.02 12.21 132.02 12.39Z"></path></g></svg>