<svg version="1.1" xmlns="http://www.w3.org/2000/svg" width="439" height="512" viewBox="0 0 439 512"><title>instagram</title><path d="M292.572 256c0-40.286-32.857-73.143-73.143-73.143s-73.143 32.857-73.143 73.143 32.857 73.143 73.143 73.143 73.143-32.857 73.143-73.143zM332 256c0 62.286-50.286 112.572-112.572 112.572s-112.572-50.286-112.572-112.572 50.285-112.572 112.572-112.572 112.572 50.286 112.572 112.572zM362.857 138.857c0 14.571-11.714 26.285-26.286 26.285s-26.286-11.714-26.286-26.286 11.714-26.285 26.286-26.285 26.286 11.715 26.286 26.285zM219.429 76c-32 0-100.572-2.572-129.429 8.857-10 4-17.428 8.857-25.143 16.572s-12.572 15.143-16.572 25.143c-11.428 28.857-8.857 97.428-8.857 129.428s-2.572 100.572 8.857 129.428c4 10 8.857 17.428 16.572 25.143s15.143 12.572 25.143 16.572c28.857 11.428 97.428 8.857 129.429 8.857s100.571 2.572 129.429-8.857c10-4 17.428-8.857 25.143-16.572s12.572-15.143 16.572-25.143c11.428-28.857 8.857-97.428 8.857-129.429s2.572-100.571-8.857-129.429c-4-10-8.857-17.428-16.572-25.143s-15.143-12.572-25.143-16.572c-28.857-11.428-97.428-8.857-129.429-8.857zM438.857 256c0 30.286 0.286 60.286-1.428 90.572-1.714 35.143-9.714 66.286-35.428 92s-56.857 33.714-92 35.428c-30.286 1.714-60.286 1.428-90.572 1.428s-60.286 0.286-90.572-1.428c-35.143-1.714-66.285-9.714-92-35.428s-33.715-56.857-35.428-92c-1.714-30.286-1.429-60.286-1.429-90.572s-0.285-60.286 1.429-90.572c1.715-35.143 9.714-66.285 35.428-92s56.857-33.715 92-35.428c30.286-1.715 60.286-1.428 90.572-1.428s60.286-0.285 90.572 1.428c35.143 1.715 66.286 9.715 92 35.428s33.714 56.857 35.428 92c1.714 30.286 1.428 60.286 1.428 90.572z"></path></svg>