<svg version="1.1" xmlns="http://www.w3.org/2000/svg" width="439" height="512" viewBox="0 0 439 512"><title>linkedin</title><path d="M99.715 178.571v283.143h-94.285v-283.143h94.285zM105.715 91.143c0.285 27.143-20.285 48.857-53.143 48.857v0h-0.572c-31.715 0-52-21.715-52-48.857 0-27.715 21.143-48.857 53.143-48.857 32.285 0 52.285 21.143 52.572 48.857zM438.857 299.428v162.286h-94v-151.429c0-38-13.714-64-47.714-64-26 0-41.428 17.428-48.286 34.286-2.286 6.286-3.143 14.572-3.143 23.143v158h-94c1.143-256.572 0-283.143 0-283.143h94v41.143h-0.571c12.286-19.429 34.572-47.715 85.428-47.715 62 0 108.286 40.572 108.286 127.428z"></path></svg>