<svg version="1.1" xmlns="http://www.w3.org/2000/svg" width="439" height="512" viewBox="0 0 439 512"><title>share-alt</title><path d="M347.428 292.572c50.572 0 91.428 40.857 91.428 91.428s-40.857 91.428-91.428 91.428-91.428-40.857-91.428-91.428c0-3.143 0.286-6.572 0.572-9.714l-102.857-51.428c-16.285 15.143-38.285 24.572-62.285 24.572-50.572 0-91.428-40.857-91.428-91.428s40.857-91.428 91.428-91.428c24 0 46 9.428 62.285 24.572l102.857-51.428c-0.286-3.143-0.572-6.572-0.572-9.714 0-50.572 40.857-91.428 91.428-91.428s91.428 40.857 91.428 91.428-40.857 91.428-91.428 91.428c-24 0-46-9.428-62.286-24.572l-102.857 51.428c0.286 3.143 0.571 6.572 0.571 9.714s-0.286 6.572-0.571 9.714l102.857 51.428c16.286-15.143 38.286-24.572 62.286-24.572z"></path></svg>