<svg data-v-423bf9ae="" xmlns="http://www.w3.org/2000/svg" viewBox="0 0 416.5054229046585 60" class="font"><!----><!----><defs data-v-423bf9ae=""><linearGradient data-v-423bf9ae="" gradientTransform="rotate(25)" id="73332211-5509-485b-9020-b3da3288e469" x1="0%" y1="0%" x2="100%" y2="0%"><stop data-v-423bf9ae="" offset="0%" style="stop-color: rgb(140, 72, 210); stop-opacity: 1;"></stop><stop data-v-423bf9ae="" offset="100%" style="stop-color: rgb(207, 112, 90); stop-opacity: 1;"></stop></linearGradient></defs><g data-v-423bf9ae="" id="f949e223-7261-455d-b9da-efec583171d1" fill="url(#73332211-5509-485b-9020-b3da3288e469)" transform="matrix(5.92300092025334,0,0,5.92300092025334,-2.7838109966437514,-18.00592209478844)"><path d="M2.89 3.74L2.89 7.68L4.61 7.68L4.61 7.68Q4.90 7.68 5.17 7.50L5.17 7.50L5.17 7.50Q5.44 7.33 5.68 7L5.68 7L5.68 7Q5.89 6.69 6.01 6.36L6.01 6.36L6.01 6.36Q6.13 6.03 6.13 5.71L6.13 5.71L6.13 5.71Q6.13 4.93 5.67 4.33L5.67 4.33L5.67 4.33Q5.20 3.73 4.46 3.73L4.46 3.73L2.89 3.74ZM0.47 13.01L0.47 12.30L1.16 12.31L1.16 3.74L0.47 3.74L0.47 3.04L4.66 3.04L4.66 3.04Q5.29 3.04 5.84 3.20L5.84 3.20L5.84 3.20Q6.39 3.37 6.84 3.68L6.84 3.68L6.84 3.68Q7.33 4.05 7.59 4.56L7.59 4.56L7.59 4.56Q7.86 5.07 7.86 5.70L7.86 5.70L7.86 5.70Q7.86 6.28 7.62 6.77L7.62 6.77L7.62 6.77Q7.38 7.27 6.94 7.66L6.94 7.66L6.94 7.66Q6.51 8.01 5.99 8.21L5.99 8.21L5.99 8.21Q5.47 8.40 4.89 8.40L4.89 8.40L2.89 8.40L2.89 12.30L3.63 12.30L3.63 13.01L0.47 13.01ZM8.65 6.27L10.91 6.27L10.91 6.55L10.91 6.55Q11.50 6.15 12.33 6.15L12.33 6.15L12.33 6.15Q13.51 6.15 14.35 6.88L14.35 6.88L13.38 7.99L13.38 7.99Q12.93 6.83 12.17 6.83L12.17 6.83L12.17 6.83Q11.42 6.83 10.91 7.49L10.91 7.49L10.91 7.49Q10.92 8.74 10.92 9.92L10.92 9.92L10.92 9.92Q10.92 11.09 10.93 12.35L10.93 12.35L11.62 12.35L11.62 13.01L8.65 13.01L8.65 12.35L9.34 12.35L9.34 6.93L8.65 6.93L8.65 6.27ZM16.55 8.84L19.48 8.84L19.48 8.84Q19.43 7.82 19.06 7.30L19.06 7.30L19.06 7.30Q18.68 6.79 18.00 6.79L18.00 6.79L18.00 6.79Q17.23 6.79 16.86 7.49L16.86 7.49L16.86 7.49Q16.71 7.75 16.64 8.08L16.64 8.08L16.64 8.08Q16.56 8.42 16.55 8.84L16.55 8.84ZM21.10 9.50L16.53 9.50L16.53 9.50Q16.52 9.65 16.53 9.73L16.53 9.73L16.53 9.73Q16.53 9.82 16.53 9.86L16.53 9.86L16.53 9.86Q16.53 12.43 18.38 12.43L18.38 12.43L18.38 12.43Q19.03 12.43 19.60 12.09L19.60 12.09L19.60 12.09Q19.87 11.92 20.09 11.65L20.09 11.65L20.09 11.65Q20.32 11.38 20.47 11.03L20.47 11.03L21.06 11.39L21.06 11.39Q20.88 11.85 20.56 12.20L20.56 12.20L20.56 12.20Q20.25 12.54 19.82 12.78L19.82 12.78L19.82 12.78Q19.46 12.97 19.02 13.07L19.02 13.07L19.02 13.07Q18.59 13.17 18.12 13.17L18.12 13.17L18.12 13.17Q17.32 13.17 16.71 12.89L16.71 12.89L16.71 12.89Q16.10 12.61 15.69 12.07L15.69 12.07L15.69 12.07Q15.33 11.59 15.15 10.93L15.15 10.93L15.15 10.93Q14.96 10.27 14.96 9.47L14.96 9.47L14.96 9.47Q14.96 7.98 15.70 7.07L15.70 7.07L15.70 7.07Q16.51 6.10 18.01 6.10L18.01 6.10L18.01 6.10Q18.74 6.10 19.29 6.33L19.29 6.33L19.29 6.33Q19.85 6.57 20.26 7.04L20.26 7.04L20.26 7.04Q21.01 7.91 21.10 9.50L21.10 9.50ZM25.61 6.27L25.61 6.93L24.44 6.93L24.44 11.39L24.44 11.39Q24.44 11.99 24.65 12.15L24.65 12.15L24.65 12.15Q24.83 12.29 25.61 12.35L25.61 12.35L25.61 13.02L25.61 13.02Q24.94 13.00 24.50 12.95L24.50 12.95L24.50 12.95Q24.06 12.91 23.83 12.84L23.83 12.84L23.83 12.84Q22.85 12.53 22.85 11.55L22.85 11.55L22.85 6.93L21.81 6.93L21.81 6.27L21.81 6.27Q22.65 6.27 23.23 5.61L23.23 5.61L23.23 5.61Q23.48 5.33 23.67 4.97L23.67 4.97L23.67 4.97Q23.86 4.61 24.01 4.16L24.01 4.16L24.44 4.16L24.44 6.27L25.61 6.27ZM28.03 9.67L28.03 9.67L28.03 9.67Q28.03 10.78 28.35 11.51L28.35 11.51L28.35 11.51Q28.76 12.50 29.63 12.50L29.63 12.50L29.63 12.50Q30.06 12.50 30.39 12.24L30.39 12.24L30.39 12.24Q30.71 11.99 30.92 11.52L30.92 11.52L30.92 11.52Q31.07 11.15 31.15 10.68L31.15 10.68L31.15 10.68Q31.23 10.22 31.23 9.69L31.23 9.69L31.23 9.69Q31.23 8.58 30.92 7.81L30.92 7.81L30.92 7.81Q30.50 6.77 29.64 6.77L29.64 6.77L29.64 6.77Q29.20 6.77 28.87 7.04L28.87 7.04L28.87 7.04Q28.55 7.31 28.34 7.78L28.34 7.78L28.34 7.78Q28.21 8.15 28.12 8.63L28.12 8.63L28.12 8.63Q28.03 9.12 28.03 9.67ZM32.82 9.64L32.82 9.64L32.82 9.64Q32.82 11.51 32.01 12.34L32.01 12.34L32.01 12.34Q31.22 13.15 29.37 13.15L29.37 13.15L29.37 13.15Q26.44 13.15 26.44 9.64L26.44 9.64L26.44 9.64Q26.44 6.11 29.80 6.11L29.80 6.11L29.80 6.11Q32.82 6.11 32.82 9.64ZM33.78 6.27L36.04 6.27L36.04 6.55L36.04 6.55Q36.63 6.15 37.46 6.15L37.46 6.15L37.46 6.15Q38.64 6.15 39.48 6.88L39.48 6.88L38.51 7.99L38.51 7.99Q38.06 6.83 37.30 6.83L37.30 6.83L37.30 6.83Q36.55 6.83 36.04 7.49L36.04 7.49L36.04 7.49Q36.05 8.74 36.05 9.92L36.05 9.92L36.05 9.92Q36.05 11.09 36.06 12.35L36.06 12.35L36.75 12.35L36.75 13.01L33.78 13.01L33.78 12.35L34.47 12.35L34.47 6.93L33.78 6.93L33.78 6.27ZM40.36 6.53L42.12 6.53L42.12 12.61L42.79 12.61L42.79 12.74L40.36 12.74L40.36 12.61L41.06 12.61L41.06 6.67L40.36 6.67L40.36 6.53ZM40.69 4.03L40.69 4.03L40.69 4.03Q40.69 3.84 40.77 3.68L40.77 3.68L40.77 3.68Q40.84 3.51 40.96 3.39L40.96 3.39L40.96 3.39Q41.08 3.27 41.24 3.20L41.24 3.20L41.24 3.20Q41.41 3.12 41.59 3.12L41.59 3.12L41.59 3.12Q41.77 3.12 41.94 3.20L41.94 3.20L41.94 3.20Q42.10 3.27 42.22 3.39L42.22 3.39L42.22 3.39Q42.34 3.51 42.41 3.68L42.41 3.68L42.41 3.68Q42.49 3.84 42.49 4.03L42.49 4.03L42.49 4.03Q42.49 4.21 42.41 4.38L42.41 4.38L42.41 4.38Q42.34 4.54 42.22 4.66L42.22 4.66L42.22 4.66Q42.10 4.78 41.94 4.85L41.94 4.85L41.94 4.85Q41.77 4.92 41.59 4.92L41.59 4.92L41.59 4.92Q41.41 4.92 41.24 4.85L41.24 4.85L41.24 4.85Q41.08 4.78 40.96 4.66L40.96 4.66L40.96 4.66Q40.84 4.54 40.77 4.38L40.77 4.38L40.77 4.38Q40.69 4.21 40.69 4.03ZM44.04 6.27L46.32 6.27L46.32 10.21L46.32 10.21Q46.32 12.49 47.67 12.49L47.67 12.49L47.67 12.49Q48.40 12.49 49.05 11.72L49.05 11.72L49.05 6.93L48.36 6.93L48.36 6.27L50.64 6.27L50.64 12.35L51.33 12.35L51.33 13.01L49.05 13.01L49.05 12.64L49.05 12.64Q48.70 12.89 48.30 13.03L48.30 13.03L48.30 13.03Q47.90 13.17 47.45 13.17L47.45 13.17L47.45 13.17Q46.12 13.17 45.40 12.35L45.40 12.35L45.40 12.35Q44.73 11.59 44.73 10.25L44.73 10.25L44.73 6.93L44.04 6.93L44.04 6.27ZM53.14 11.08L53.14 11.44L53.14 11.44Q53.28 11.70 53.43 11.90L53.43 11.90L53.43 11.90Q53.58 12.11 53.72 12.22L53.72 12.22L53.72 12.22Q54.10 12.52 54.65 12.52L54.65 12.52L54.65 12.52Q55.20 12.52 55.58 12.20L55.58 12.20L55.58 12.20Q55.99 11.85 55.99 11.35L55.99 11.35L55.99 11.35Q55.99 11.07 55.76 10.83L55.76 10.83L55.76 10.83Q55.53 10.58 55.15 10.39L55.15 10.39L55.15 10.39Q54.94 10.29 54.73 10.21L54.73 10.21L54.73 10.21Q54.52 10.12 54.30 10.02L54.30 10.02L54.30 10.02Q54.09 9.93 53.87 9.84L53.87 9.84L53.87 9.84Q53.66 9.75 53.44 9.65L53.44 9.65L53.44 9.65Q52.46 9.05 52.46 8.00L52.46 8.00L52.46 8.00Q52.46 7.55 52.68 7.19L52.68 7.19L52.68 7.19Q52.91 6.82 53.32 6.54L53.32 6.54L53.32 6.54Q53.68 6.32 54.10 6.20L54.10 6.20L54.10 6.20Q54.52 6.08 54.98 6.08L54.98 6.08L54.98 6.08Q55.11 6.08 55.32 6.13L55.32 6.13L55.32 6.13Q55.53 6.17 55.77 6.25L55.77 6.25L55.77 6.25Q55.99 6.32 56.17 6.36L56.17 6.36L56.17 6.36Q56.36 6.40 56.47 6.40L56.47 6.40L56.47 6.40Q56.64 6.40 56.73 6.27L56.73 6.27L57.33 6.27L57.33 8.20L56.66 8.20L56.66 7.83L56.66 7.83Q56.11 6.76 55.22 6.76L55.22 6.76L55.22 6.76Q54.70 6.76 54.37 7.08L54.37 7.08L54.37 7.08Q54.03 7.38 54.03 7.89L54.03 7.89L54.03 7.89Q54.03 8.33 54.44 8.55L54.44 8.55L54.44 8.54L54.44 8.54Q54.55 8.60 54.93 8.75L54.93 8.75L54.93 8.75Q55.32 8.91 55.99 9.15L55.99 9.15L55.99 9.15Q57.50 9.73 57.50 11.25L57.50 11.25L57.50 11.25Q57.50 11.76 57.24 12.16L57.24 12.16L57.24 12.16Q56.98 12.55 56.53 12.80L56.53 12.80L56.53 12.80Q56.17 12.96 55.70 13.06L55.70 13.06L55.70 13.06Q55.22 13.17 54.70 13.17L54.70 13.17L54.70 13.17Q54.57 13.17 54.39 13.13L54.39 13.13L54.39 13.13Q54.21 13.10 53.97 13.02L53.97 13.02L53.97 13.02Q53.75 12.94 53.59 12.91L53.59 12.91L53.59 12.91Q53.43 12.88 53.33 12.88L53.33 12.88L53.33 12.88Q53.16 12.88 53.07 13.01L53.07 13.01L52.47 13.01L52.47 11.08L53.14 11.08ZM59.32 11.08L59.32 11.44L59.32 11.44Q59.46 11.70 59.61 11.90L59.61 11.90L59.61 11.90Q59.76 12.11 59.90 12.22L59.90 12.22L59.90 12.22Q60.28 12.52 60.83 12.52L60.83 12.52L60.83 12.52Q61.38 12.52 61.76 12.20L61.76 12.20L61.76 12.20Q62.17 11.85 62.17 11.35L62.17 11.35L62.17 11.35Q62.17 11.07 61.94 10.83L61.94 10.83L61.94 10.83Q61.71 10.58 61.33 10.39L61.33 10.39L61.33 10.39Q61.12 10.29 60.91 10.21L60.91 10.21L60.91 10.21Q60.70 10.12 60.48 10.02L60.48 10.02L60.48 10.02Q60.27 9.93 60.05 9.84L60.05 9.84L60.05 9.84Q59.83 9.75 59.62 9.65L59.62 9.65L59.62 9.65Q58.64 9.05 58.64 8.00L58.64 8.00L58.64 8.00Q58.64 7.55 58.86 7.19L58.86 7.19L58.86 7.19Q59.09 6.82 59.50 6.54L59.50 6.54L59.50 6.54Q59.86 6.32 60.28 6.20L60.28 6.20L60.28 6.20Q60.70 6.08 61.16 6.08L61.16 6.08L61.16 6.08Q61.29 6.08 61.50 6.13L61.50 6.13L61.50 6.13Q61.71 6.17 61.95 6.25L61.95 6.25L61.95 6.25Q62.17 6.32 62.35 6.36L62.35 6.36L62.35 6.36Q62.54 6.40 62.65 6.40L62.65 6.40L62.65 6.40Q62.82 6.40 62.91 6.27L62.91 6.27L63.51 6.27L63.51 8.20L62.84 8.20L62.84 7.83L62.84 7.83Q62.29 6.76 61.40 6.76L61.40 6.76L61.40 6.76Q60.88 6.76 60.55 7.08L60.55 7.08L60.55 7.08Q60.21 7.38 60.21 7.89L60.21 7.89L60.21 7.89Q60.21 8.33 60.62 8.55L60.62 8.55L60.62 8.54L60.62 8.54Q60.73 8.60 61.11 8.75L61.11 8.75L61.11 8.75Q61.50 8.91 62.17 9.15L62.17 9.15L62.17 9.15Q63.68 9.73 63.68 11.25L63.68 11.25L63.68 11.25Q63.68 11.76 63.42 12.16L63.42 12.16L63.42 12.16Q63.16 12.55 62.71 12.80L62.71 12.80L62.71 12.80Q62.35 12.96 61.88 13.06L61.88 13.06L61.88 13.06Q61.40 13.17 60.88 13.17L60.88 13.17L60.88 13.17Q60.75 13.17 60.57 13.13L60.57 13.13L60.57 13.13Q60.39 13.10 60.15 13.02L60.15 13.02L60.15 13.02Q59.93 12.94 59.77 12.91L59.77 12.91L59.77 12.91Q59.61 12.88 59.51 12.88L59.51 12.88L59.51 12.88Q59.34 12.88 59.25 13.01L59.25 13.01L58.65 13.01L58.65 11.08L59.32 11.08ZM66.25 8.84L69.18 8.84L69.18 8.84Q69.13 7.82 68.75 7.30L68.75 7.30L68.75 7.30Q68.38 6.79 67.70 6.79L67.70 6.79L67.70 6.79Q66.92 6.79 66.55 7.49L66.55 7.49L66.55 7.49Q66.41 7.75 66.34 8.08L66.34 8.08L66.34 8.08Q66.26 8.42 66.25 8.84L66.25 8.84ZM70.79 9.50L66.23 9.50L66.23 9.50Q66.22 9.65 66.22 9.73L66.22 9.73L66.22 9.73Q66.23 9.82 66.23 9.86L66.23 9.86L66.23 9.86Q66.23 12.43 68.08 12.43L68.08 12.43L68.08 12.43Q68.73 12.43 69.30 12.09L69.30 12.09L69.30 12.09Q69.56 11.92 69.79 11.65L69.79 11.65L69.79 11.65Q70.01 11.38 70.17 11.03L70.17 11.03L70.76 11.39L70.76 11.39Q70.57 11.85 70.26 12.20L70.26 12.20L70.26 12.20Q69.95 12.54 69.52 12.78L69.52 12.78L69.52 12.78Q69.15 12.97 68.72 13.07L68.72 13.07L68.72 13.07Q68.28 13.17 67.82 13.17L67.82 13.17L67.82 13.17Q67.02 13.17 66.41 12.89L66.41 12.89L66.41 12.89Q65.80 12.61 65.39 12.07L65.39 12.07L65.39 12.07Q65.03 11.59 64.84 10.93L64.84 10.93L64.84 10.93Q64.65 10.27 64.65 9.47L64.65 9.47L64.65 9.47Q64.65 7.98 65.40 7.07L65.40 7.07L65.40 7.07Q66.21 6.10 67.70 6.10L67.70 6.10L67.70 6.10Q68.43 6.10 68.99 6.33L68.99 6.33L68.99 6.33Q69.55 6.57 69.96 7.04L69.96 7.04L69.96 7.04Q70.70 7.91 70.79 9.50L70.79 9.50Z"></path></g><!----><!----></svg>